<?xml version="1.0" standalone="no"?>
<!DOCTYPE svg PUBLIC "-//W3C//DTD SVG 20010904//EN"
 "http://www.w3.org/TR/2001/REC-SVG-20010904/DTD/svg10.dtd">
<svg version="1.0" xmlns="http://www.w3.org/2000/svg"
 width="912.000000pt" height="774.000000pt" viewBox="0 0 912.000000 774.000000"
 preserveAspectRatio="xMidYMid meet">
<metadata>
Created by potrace 1.16, written by Peter Selinger 2001-2019
</metadata>
<g transform="translate(0.000000,774.000000) scale(0.100000,-0.100000)"
fill="#000000" stroke="none">
<path d="M4317 7700 c-451 -48 -858 -192 -1222 -435 -157 -105 -259 -189 -428
-355 l-148 -145 175 -175 175 -174 143 140 c225 221 371 326 613 445 602 293
1302 291 1897 -7 230 -115 373 -219 586 -428 l153 -150 174 174 175 175 -118
118 c-447 451 -940 708 -1534 798 -153 23 -500 33 -641 19z"/>
<path d="M4395 6744 c-183 -20 -406 -84 -570 -165 -193 -94 -327 -194 -512
-381 l-113 -113 175 -175 174 -174 138 135 c170 167 275 240 437 304 238 93
503 109 750 45 203 -54 382 -162 582 -353 l131 -126 171 172 172 172 -132 131
c-198 195 -302 272 -493 364 -231 112 -430 159 -695 164 -96 2 -193 2 -215 0z"/>
<path d="M450 3135 l0 -3135 245 0 245 0 0 2410 0 2410 490 0 490 0 0 -720 0
-720 390 0 390 0 810 405 810 405 0 -480 0 -480 960 480 960 480 0 -480 0
-480 960 480 960 480 0 -2095 0 -2095 245 0 245 0 0 2490 c0 1370 -2 2490 -5
2490 -3 0 -433 -214 -955 -475 -522 -261 -952 -475 -955 -475 -3 0 -5 214 -5
475 0 261 -2 475 -5 475 -3 0 -433 -214 -955 -475 -522 -261 -952 -475 -955
-475 -3 0 -5 214 -5 475 0 261 -2 475 -5 475 -3 0 -505 -250 -1115 -555
l-1110 -555 -85 0 -85 0 0 1200 0 1200 -980 0 -980 0 0 -3135z m1470 2410 l0
-235 -490 0 -490 0 0 235 0 235 490 0 490 0 0 -235z"/>
<path d="M3360 2155 l0 -725 480 0 480 0 0 -480 0 -480 245 0 245 0 0 1205 0
1205 -245 0 -245 0 0 -480 0 -480 -235 0 -235 0 0 480 0 480 -245 0 -245 0 0
-725z"/>
<path d="M6816 2863 c-268 -57 -471 -249 -553 -522 -15 -49 -17 -128 -20 -620
-3 -372 0 -588 7 -634 25 -162 91 -291 209 -407 90 -88 159 -131 278 -173 83
-29 97 -31 228 -31 123 0 149 4 217 26 123 41 204 92 298 187 94 95 142 174
182 301 l23 75 0 615 0 615 -26 77 c-56 164 -159 299 -297 389 -161 105 -359
143 -546 102z m225 -488 c49 -17 110 -70 137 -119 15 -28 17 -84 17 -581 0
-609 3 -575 -66 -644 -95 -96 -227 -94 -325 4 -76 76 -76 72 -72 670 3 506 3
510 25 552 58 107 174 155 284 118z"/>
<path d="M1440 975 l0 -975 245 0 245 0 0 730 0 730 235 0 235 0 0 -730 0
-730 245 0 245 0 0 975 0 975 -725 0 -725 0 0 -975z"/>
<path d="M5280 715 l0 -245 245 0 245 0 0 245 0 245 -245 0 -245 0 0 -245z"/>
</g>
</svg>
